HIERARCHY
ROOT Hip
{
    OFFSET 0.0 0.0 0.0
    CHANNELS 6 Xposition Yposition Zposition Zrotation Xrotation Yrotation
    JOINT RightHip
    {
        OFFSET -10.135560989379883 0.0 0.0
        CHANNELS 3 Zrotation Xrotation Yrotation
        JOINT RightKnee
        {
            OFFSET 0.0 0.0 -33.17281723022461
            CHANNELS 3 Zrotation Xrotation Yrotation
            JOINT RightAnkle
            {
                OFFSET 0.0 0.0 -38.64624786376953
                CHANNELS 3 Zrotation Xrotation Yrotation
                End Site
                {
                    OFFSET 0.0 -15.458499908447266 0.0
                }
            }
        }
    }
    JOINT LeftHip
    {
        OFFSET 10.135560989379883 0.0 0.0
        CHANNELS 3 Zrotation Xrotation Yrotation
        JOINT LeftKnee
        {
            OFFSET 0.0 0.0 -33.17281723022461
            CHANNELS 3 Zrotation Xrotation Yrotation
            JOINT LeftAnkle
            {
                OFFSET 0.0 0.0 -38.64624786376953
                CHANNELS 3 Zrotation Xrotation Yrotation
                End Site
                {
                    OFFSET 0.0 -15.458499908447266 0.0
                }
            }
        }
    }
    JOINT Spine
    {
        OFFSET 0.0 0.0 38.23549270629883
        CHANNELS 3 Zrotation Xrotation Yrotation
        JOINT Thorax
        {
            OFFSET 0.0 0.0 12.457524299621582
            CHANNELS 3 Zrotation Xrotation Yrotation
            JOINT Neck
            {
                OFFSET 0.0 0.0 0.0
                CHANNELS 3 Zrotation Xrotation Yrotation
                End Site
                {
                    OFFSET 0.0 0.0 0.0
                }
            }
            JOINT LeftShoulder
            {
                OFFSET 18.14773178100586 0.0 0.0
                CHANNELS 3 Zrotation Xrotation Yrotation
                JOINT LeftElbow
                {
                    OFFSET 27.886817932128906 0.0 0.0
                    CHANNELS 3 Zrotation Xrotation Yrotation
                    JOINT LeftWrist
                    {
                        OFFSET 22.842937469482422 0.0 0.0
                        CHANNELS 3 Zrotation Xrotation Yrotation
                        End Site
                        {
                            OFFSET 9.137175559997559 0.0 0.0
                        }
                    }
                }
            }
            JOINT RightShoulder
            {
                OFFSET -18.14773178100586 0.0 0.0
                CHANNELS 3 Zrotation Xrotation Yrotation
                JOINT RightElbow
                {
                    OFFSET -27.886817932128906 0.0 0.0
                    CHANNELS 3 Zrotation Xrotation Yrotation
                    JOINT RightWrist
                    {
                        OFFSET -22.842937469482422 0.0 0.0
                        CHANNELS 3 Zrotation Xrotation Yrotation
                        End Site
                        {
                            OFFSET -9.137175559997559 0.0 0.0
                        }
                    }
                }
            }
        }
    }
}
MOTION
Frames: 11
Frame Time: 0.03333333333333333
2.070648193359375 62.80786895751953 -53.86273193359375 112.90879983846033 -55.35364693343709 113.72523807145987 -3.9901109808900936 -32.43234204712497 12.199708762614 32.204230808460395 59.32985253756721 -46.37290538206612 -6.3611093629270335e-15 -8.827812596100317e-32 1.5902773407317584e-15 -3.5895699652716635 -41.35390864343531 -5.662860432345454 6.0324396047909445 76.61583264536301 -8.241267822550954 3.1805546814635164e-15 -7.95138670365879e-16 1.5902773407317582e-15 -1.2948038909191542 -14.721757515465193 4.519087008667629 -9.12946618771995 1.3938005314182928e-06 -1.9558092098013924e-07 -19.624790147124305 20.390706586313463 1.3007038314217094 -40.057824664923956 32.08346651232865 94.59337056750562 -54.220222719057126 1.4620049257605417e-06 2.8190606661475625e-06 -3.1805546814635168e-15 -1.5902773407317584e-15 -4.4139062980501586e-32 60.182908890773085 24.71729688561635 -101.76191614337274 55.33824023784104 7.735690781022871e-07 -1.2085267188502278e-06 -4.4139062980501586e-32 1.5902773407317588e-15 3.1805546814635176e-15
2.0830841064453125 62.81352233886719 -53.84149169921875 112.80993579467147 -55.074780358563515 113.65434562419571 -4.191651427025857 -32.396595376922235 12.364708389286877 32.825797237531326 59.223338763946025 -47.112818488216455 0.0 0.0 -1.5902773407317588e-15 -3.5635859656169075 -41.30283738529276 -5.543554163382694 6.995683478212998 76.52239071383262 -9.330549264869191 3.1805546814635168e-15 6.3611093629270335e-15 -1.5902773407317584e-15 -1.324164442228236 -14.675273475152927 4.5682487909199505 -9.311744264178033 3.01568002792096e-06 1.7416104524661019e-06 -19.677225957534933 20.40254556743411 1.3150695362455438 -39.91118818501661 32.177015044148504 94.49006868996682 -54.262690717403046 -5.354343597664201e-07 -2.894373089208023e-06 3.1805546814635168e-15 0.0 0.0 59.74503423401577 24.648578046621317 -101.79534289238167 55.15625910042076 3.9142120884269185e-06 -1.3542875201429213e-06 0.0 0.0 0.0
2.0939712524414062 62.812828063964844 -53.824188232421875 112.89723138457931 -55.03780007393833 113.73239279939023 -4.380694976240524 -32.38268547800847 12.435381979886973 33.0006677766943 59.360717830645065 -47.316937639651066 3.1805546814635168e-15 -6.7586786981099735e-15 -1.5902773407317582e-15 -3.3960513807339456 -41.301911500320664 -5.468795992580648 7.717378726115776 76.52648800780483 -10.143966443775652 -3.180554681463516e-15 7.95138670365879e-16 1.590277340731758e-15 -1.3173120789033144 -14.596001152070446 4.5638630578099 -9.261365118880775 -9.738617919006286e-07 6.944898714429236e-07 -19.74168740586073 20.33691022663299 1.2783145161489067 -39.67627833854097 32.29221260321461 94.34625943672857 -54.294762302311746 4.832546222704033e-07 8.991549378574778e-07 -3.1805546814635168e-15 0.0 0.0 59.203369822875224 24.681093024386268 -101.82958935747845 55.079987912339654 1.0566504832843827e-06 -3.0238628268488985e-06 0.0 -7.951386703658792e-16 0.0
2.12652587890625 62.80780029296875 -53.79515075683594 113.1490115500931 -55.19443187153274 113.9494898177314 -4.350009994148244 -32.32100925934648 12.593160532089131 33.220151316621646 59.42816521189586 -47.600196048855715 5.517382872562698e-33 -3.975693351829396e-16 1.5902773407317584e-15 -3.2604384049010893 -41.24818270674441 -5.573983488312558 6.622589338105717 76.51155391076973 -9.01364472945789 3.1805546814635168e-15 0.0 0.0 -1.2894924341609422 -14.571389709694264 4.43726138569928 -8.972418961031224 -6.63482459060846e-07 -1.1800539614651281e-06 -19.876645668977325 20.234367931365863 1.275036079988164 -39.65448953750734 32.4566000399768 94.3832229831523 -54.403433434773135 8.647693226442939e-07 3.6922149200050253e-07 0.0 3.1805546814635168e-15 0.0 58.62644285916879 24.841584745169648 -101.9050369891782 55.01851671652111 4.6836486887108066e-07 2.774272392059869e-07 -6.361109362927033e-15 -7.951386703658791e-16 -4.4139062980501586e-32
2.130218505859375 62.80243682861328 -53.79457092285156 113.39697747493904 -55.397820642736704 114.15686217956062 -4.311274536401631 -32.336331355742665 12.633289789890464 33.265885327704204 59.68618498618206 -47.59789053941711 8.276074308844047e-32 -5.9635400277440935e-15 1.5902773407317584e-15 -3.13182206151132 -41.27515442808708 -5.6959678565119924 5.699462066775248 76.54727609592445 -8.0278929916725 0.0 0.0 0.0 -1.2520482909615547 -14.505892228896696 4.375764503443558 -8.686222967380763 -8.253877854301313e-07 4.7542555952680065e-07 -19.94102004171251 20.199056803934717 1.2431684825491136 -39.43200228137111 32.596797546632345 94.2347133982737 -54.535473210711345 -5.508279472242512e-07 4.194038176124425e-07 3.1805546814635164e-15 0.0 0.0 58.140257789914614 24.900297305727282 -101.95014625581655 54.903362847303974 -6.605956507478292e-07 -2.838219465473867e-06 0.0 0.0 0.0
2.1069793701171875 62.801979064941406 -53.807708740234375 113.63454796889941 -55.713627173568845 114.35659592382443 -4.077826341747736 -32.377522847897886 12.648482168191263 33.3567901953656 59.91045160358791 -47.67915295431266 0.0 0.0 -1.5902773407317582e-15 -3.109177697986214 -41.306521126289766 -5.863538336860975 3.7690817716124987 76.49991237171464 -5.99864236324878 6.361109362927035e-15 8.827812596100317e-32 1.5902773407317588e-15 -1.2094189547567198 -14.507132086013556 4.354099592347249 -8.28347904612594 8.929358830300181e-07 -8.965250383592469e-07 -19.99484441896198 20.203735237495877 1.1980486788430813 -39.58426554329687 32.740305522099014 94.22138197555384 -54.58508006865433 6.343576679249704e-07 -4.5033867728590963e-07 -3.1805546814635168e-15 -3.1805546814635168e-15 -6.3611093629270335e-15 57.82481500215255 24.863777975864636 -102.06004460124028 54.64349599409308 1.2319143216845875e-06 -1.2541693667844853e-06 0.0 1.5902773407317584e-15 0.0
2.0811920166015625 62.79499816894531 -53.81214904785156 113.92427555022314 -56.086191300867526 114.6082438660832 -3.747755257649584 -32.3620427003444 12.665152667817452 33.16330524410284 60.012284757229324 -47.51652824468015 3.1805546814635176e-15 6.361109362927035e-15 -1.7655625192200634e-31 -3.138402472283247 -41.367519764326715 -6.102524685557197 1.472231905549073 76.681183761164 -3.5118084589228187 -6.361109362927033e-15 7.951386703658791e-16 4.4139062980501586e-32 -1.1602014429432035 -14.51928245679185 4.310577372905778 -7.870148884233403 -3.0015696946745124e-06 -4.134950803432318e-07 -20.002731772699633 20.243823426821123 1.176222020033118 -39.57139591844364 32.85450554483577 94.1465417379942 -54.66444231348541 -2.2355648280743735e-07 4.045803236731731e-06 -3.1805546814635168e-15 0.0 0.0 57.48829421092235 24.75017999313923 -102.06317761084028 54.19916735696671 -9.265586389647037e-07 -1.8776074393918023e-06 0.0 -7.951386703658792e-16 0.0
2.0608749389648438 62.792083740234375 -53.82380676269531 114.37582551125271 -56.63567899960849 114.98831555061892 -3.4637017698020856 -32.45962681244932 12.515677035877047 32.69103560296007 60.4007794778447 -46.88977020223134 -5.517382872562698e-33 -3.975693351829395e-16 -1.590277340731758e-15 -2.995141980955566 -41.375073156560646 -6.374341159947685 -1.3505791941611098 76.81622485831261 -0.5058673305869806 -3.1805546814635164e-15 -6.361109362927033e-15 1.590277340731758e-15 -1.0863650995638956 -14.51599152100651 4.217544646285796 -7.290807695979483 -5.509527050565618e-06 1.0710996432732597e-06 -19.99096256906728 20.27797386261038 1.1538616105987316 -39.62724300650211 32.89583350172899 94.07429650587338 -54.6082524327384 -1.4675976385726676e-07 1.0726171843201973e-06 3.1805546814635168e-15 -3.1805546814635168e-15 8.827812596100317e-32 57.325046865173476 24.63520891230653 -102.04594965839705 53.814696833429906 -9.046459915153786e-07 1.1841349753821268e-06 0.0 0.0 0.0
2.0527191162109375 62.794471740722656 -53.83973693847656 114.76235768070698 -57.07300824233122 115.31095256378049 -3.1808711013481203 -32.4790383275141 12.528121703641158 32.487099529316836 60.545209969118766 -46.63758151996166 0.0 -6.361109362927035e-15 0.0 -2.9162874454042225 -41.3907728014998 -6.568008544563391 -3.8598450209487205 76.9176946796248 2.132690405824676 -6.3611093629270335e-15 7.951386703658791e-16 1.5902773407317584e-15 -1.0264680058190099 -14.510284856821945 4.122533913883298 -6.781528097048295 8.052642564236692e-07 -1.503656953059069e-07 -20.016388002987178 20.328805885173743 1.1545202843089486 -39.88909412273215 32.73511140329611 94.04180075560922 -54.343437649541144 -4.408158328930731e-06 2.9708198292347732e-06 0.0 1.590277340731758e-15 0.0 56.98870068864333 24.508101375346673 -102.04267846715291 53.31987944659371 2.2043579787795132e-06 -1.814915837020938e-06 6.3611093629270335e-15 -7.951386703658792e-16 4.4139062980501586e-32
2.0332565307617188 62.80548858642578 -53.88336181640625 115.02924280296648 -57.48924611391124 115.5282419735464 -2.865646385674035 -32.543130319455486 12.568888932616606 32.40425329607169 60.60877880906604 -46.54709861166347 0.0 -6.758678698109972e-15 0.0 -2.9475852696612286 -41.446787352017886 -6.794693893249151 -6.367998949771916 77.03287844703982 4.826024150306159 -1.590277340731758e-15 -7.95138670365879e-16 -3.180554681463516e-15 -0.9823502788574545 -14.551079606406903 4.0419296487497895 -6.355013229620454 -4.568162531105954e-07 -3.771052278680178e-07 -19.980186294487574 20.387831257805612 1.1665296327501968 -40.03915965036851 32.66960788855851 94.0230601190197 -54.189321182742475 3.28028675437054e-06 3.2498913150284353e-06 3.1805546814635168e-15 0.0 0.0 56.78038572764717 24.366189197333213 -101.97659471853682 52.98716748374657 2.953210440303324e-06 -2.4772998885165643e-06 6.3611093629270335e-15 0.0 0.0
2.0213241577148438 62.828758239746094 -53.92897033691406 115.3861243213429 -58.04054282424807 115.80476464015194 -2.618490252425261 -32.785453874770646 12.521870297116173 32.30440882428809 60.84589468928306 -46.359809982982526 -5.517382872562698e-33 -3.975693351829396e-16 -1.5902773407317584e-15 -2.8960639772462273 -41.39037822309037 -7.030534747710589 -8.890506764894234 77.01936427748944 7.594047380213496 -1.5902773407317584e-15 4.4139062980501586e-32 -3.1805546814635168e-15 -0.9391457844637066 -14.661817040884841 3.952785137950629 -5.807826925952576 1.852069605990057e-06 1.8965388190769372e-07 -19.92120702525299 20.43223387420437 1.1901073375208473 -40.182188710043036 32.65559200868729 94.0935661926035 -54.132575477508226 2.201529284929082e-06 -2.562884575552234e-06 0.0 -1.5902773407317584e-15 0.0 56.793197496997124 24.2870403477219 -101.953037406372 52.840045458335496 -6.087872267767896e-07 -3.2244613282625605e-07 0.0 1.5902773407317584e-15 0.0
